<?xml version="1.0"?>
<svg width="8" height="12" xmlns="http://www.w3.org/2000/svg" xmlns:svg="http://www.w3.org/2000/svg">
 <!-- Created with SVG-edit - https://github.com/SVG-Edit/svgedit-->

 <title>icons</title>
 <g class="layer">
  <title>Layer 1</title>
  <path d="m0,2l4,2l4,-2l-4,-2l-4,2z" fill="#808080" id="svg_7" stroke="#000000" stroke-width="0"/>
  <path d="m8,2l0,-2l-4,0l4,2z" fill="#404040" id="svg_8" stroke="#000000" stroke-width="0"/>
  <path d="m4,0l-4,0l0,2l4,-2z" fill="#000000" id="svg_10" stroke="#000000" stroke-width="0"/>
  <path d="m0,2l4,2l0,4l-4,-2l0,-4z" fill="#404040" id="svg_11" stroke="#000000" stroke-width="0"/>
  <path d="m4,8l4,-2l0,-4l-4,2l0,4z" fill="#000000" id="svg_12" stroke="#000000" stroke-width="0"/>
  <path d="m0,6l4,2l-4,2l0,-4z" fill="#808080" id="svg_13" stroke="#000000" stroke-width="0"/>
  <path d="m4,8l4,2l0,-4l-4,2z" fill="#808080" id="svg_16" stroke="#000000" stroke-width="0"/>
  <path d="m4,8l0,4l-4,0l0,-2l4,-2z" fill="#000000" id="svg_18" stroke="#000000" stroke-width="0"/>
  <path d="m4,8l4,2l0,2l-4,0l0,-4z" fill="#404040" id="svg_19" stroke="#000000" stroke-width="0"/>
 </g>
</svg>