<?xml version="1.0"?>
<svg width="30" height="60" xmlns="http://www.w3.org/2000/svg" xmlns:svg="http://www.w3.org/2000/svg">
 <!-- Created with SVG-edit - https://github.com/SVG-Edit/svgedit-->
 <title>icons</title>
 <g class="layer">
  <title>Layer 1</title>
  <path d="m8.01,23.98l12.98,0l0.01,10.02c-0.16,1.16 -0.84,1.82 -2.01,1.98l-8.99,0.02c-1.17,-0.17 -1.83,-0.83 -2,-2l0.01,-10.02zm11.99,9.02l0,-6l-10.97,0.03l0.03,6c0.17,1.19 0.81,1.87 1.97,2.06l6.97,-0.09c1.16,-0.17 1.83,-0.84 2,-2zm0,-8l-1,0l0,1l1,0l0,-1z" fill="#ffffff" id="svg_3" stroke="#000000" stroke-width="0"/>
  <path d="m8,9l13,0l0,2l-13,0c0,-0.67 0,-1.33 0,-2z" fill="#ffffff" id="svg_9" stroke="#000000" stroke-width="0"/>
  <path d="m8.99,44.02l5.51,4.98l5.5,-5l1,1l-5.5,5l5.49,4.99l-1,1l-5.49,-4.99l-5.52,5l-0.99,-0.98l5.51,-5.02l-5.51,-4.99l1,-0.99z" fill="#ffffff" id="svg_14" stroke="#000000" stroke-width="0"/>
 </g>
</svg>