<?xml version="1.0"?>
<svg width="16" height="16" xmlns="http://www.w3.org/2000/svg" xmlns:svg="http://www.w3.org/2000/svg">
 <!-- Created with SVG-edit - https://github.com/SVG-Edit/svgedit-->
 <g class="layer">
  <title>Layer 1</title>
  <rect fill="#5b371b" height="16" id="svg_2" stroke="#000000" stroke-width="0" transform="matrix(1 0 0 1 0 0)" width="16" x="0" y="0"/>
  <rect fill="#945b39" height="1" id="svg_1" stroke="#000000" stroke-width="0" width="1" x="0" y="0"/>
  <rect fill="#945b39" height="1" id="svg_3" stroke="#000000" stroke-width="0" width="1" x="2" y="0"/>
  <rect fill="#764b2a" height="2" id="svg_4" stroke="#000000" stroke-width="0" width="1" x="1" y="0"/>
  <rect fill="#764b2a" height="1" id="svg_5" stroke="#000000" stroke-width="0" width="2" x="3" y="0"/>
  <rect fill="#764b2a" height="1" id="svg_6" stroke="#000000" stroke-width="0" width="1" x="5" y="1"/>
  <rect fill="#371907" height="1" id="svg_7" stroke="#000000" stroke-width="0" width="1" x="2" y="1"/>
  <rect fill="#371907" height="1" id="svg_8" stroke="#000000" stroke-width="0" width="1" x="4" y="2"/>
  <rect fill="#371907" height="1" id="svg_9" stroke="#000000" stroke-width="0" transform="matrix(1 0 0 1 0 0)" width="1" x="5" y="3"/>
  <rect fill="#371907" height="1" id="svg_10" stroke="#000000" stroke-width="0" width="1" x="6" y="4"/>
  <rect fill="#371907" height="1" id="svg_11" stroke="#000000" stroke-width="0" width="3" x="3" y="5"/>
  <rect fill="#371907" height="1" id="svg_12" stroke="#000000" stroke-width="0" width="1" x="2" y="6"/>
  <rect fill="#371907" height="1" id="svg_13" stroke="#000000" stroke-width="0" width="1" x="1" y="4"/>
  <rect fill="#371907" height="1" id="svg_14" stroke="#000000" stroke-width="0" transform="matrix(1 0 0 1 0 0)" width="1" x="7" y="1"/>
  <rect fill="#666565" height="1" id="svg_15" stroke="#000000" stroke-width="0" width="1" x="6" y="1"/>
  <rect fill="#666565" height="1" id="svg_16" stroke="#000000" stroke-width="0" width="1" x="5" y="6"/>
  <rect fill="#764b2a" height="1" id="svg_17" stroke="#000000" stroke-width="0" width="1" x="5" y="4"/>
  <rect fill="#764b2a" height="1" id="svg_18" stroke="#000000" stroke-width="0" width="1" x="4" y="3"/>
  <rect fill="#764b2a" height="2" id="svg_19" stroke="#000000" stroke-width="0" transform="matrix(1 0 0 1 0 0)" width="1" x="2" y="4"/>
  <rect fill="#764b2a" height="1" id="svg_20" stroke="#000000" stroke-width="0" width="1" x="0" y="3"/>
  <rect fill="#945b39" height="1" id="svg_21" stroke="#000000" stroke-width="0" width="1" x="2" y="3"/>
  <rect fill="#945b39" height="1" id="svg_22" stroke="#000000" stroke-width="0" width="2" x="0" y="2"/>
  <rect fill="#484e52" height="1" id="svg_23" stroke="#000000" stroke-width="0" width="1" x="1" y="3"/>
  <rect fill="#484e52" height="1" id="svg_24" stroke="#000000" stroke-width="0" width="1" x="8" y="4"/>
  <rect fill="#945b39" height="1" id="svg_25" stroke="#000000" stroke-width="0" width="1" x="5" y="2"/>
  <rect fill="#945b39" height="1" id="svg_26" stroke="#000000" stroke-width="0" width="1" x="7" y="0"/>
  <rect fill="#764b2a" height="1" id="svg_27" stroke="#000000" stroke-width="0" width="2" x="8" y="0"/>
  <rect fill="#945b39" height="2" id="svg_28" stroke="#000000" stroke-width="0" width="1" x="9" y="1"/>
  <rect fill="#945b39" height="1" id="svg_29" stroke="#000000" stroke-width="0" width="1" x="7" y="3"/>
  <rect fill="#764b2a" height="1" id="svg_30" stroke="#000000" stroke-width="0" width="2" x="8" y="3"/>
  <rect fill="#764b2a" height="1" id="svg_31" stroke="#000000" stroke-width="0" width="1" x="10" y="1"/>
  <rect fill="#945b39" height="1" id="svg_32" stroke="#000000" stroke-width="0" width="1" x="0" y="4"/>
  <rect fill="#764b2a" height="1" id="svg_33" stroke="#000000" stroke-width="0" transform="matrix(1 0 0 1 0 0)" width="1" x="0" y="5"/>
  <rect fill="#945b39" height="1" id="svg_34" stroke="#000000" stroke-width="0" width="2" x="0" y="6"/>
  <rect fill="#945b39" height="1" id="svg_35" stroke="#000000" stroke-width="0" transform="matrix(1 0 0 1 0 0)" width="1" x="0" y="7"/>
  <rect fill="#764b2a" height="1" id="svg_36" stroke="#000000" stroke-width="0" width="2" x="0" y="9"/>
  <rect fill="#764b2a" height="1" id="svg_37" stroke="#000000" stroke-width="0" width="1" x="0" y="8"/>
  <rect fill="#764b2a" height="1" id="svg_39" stroke="#000000" stroke-width="0" width="2" x="3" y="9"/>
  <rect fill="#764b2a" height="1" id="svg_38" stroke="#000000" stroke-width="0" width="1" x="3" y="8"/>
  <rect fill="#371907" height="1" id="svg_40" stroke="#000000" stroke-width="0" width="1" x="2" y="9"/>
  <rect fill="#945b39" height="1" id="svg_41" stroke="#000000" stroke-width="0" width="2" x="2" y="7"/>
  <rect fill="#764b2a" height="1" id="svg_42" stroke="#000000" stroke-width="0" transform="matrix(1 0 0 1 0 0)" width="2" x="4" y="7"/>
  <rect fill="#764b2a" height="1" id="svg_43" stroke="#000000" stroke-width="0" width="1" x="5" y="8"/>
  <rect fill="#371907" height="1" id="svg_44" stroke="#000000" stroke-width="0" width="1" x="5" y="9"/>
  <rect fill="#371907" height="1" id="svg_45" stroke="#000000" stroke-width="0" width="1" x="6" y="10"/>
  <rect fill="#371907" height="1" id="svg_47" stroke="#000000" stroke-width="0" width="1" x="7" y="8"/>
  <rect fill="#371907" height="1" id="svg_46" stroke="#000000" stroke-width="0" transform="matrix(1 0 0 1 0 0)" width="2" x="8" y="9"/>
  <rect fill="#371907" height="1" id="svg_48" stroke="#000000" stroke-width="0" width="1" x="9" y="7"/>
  <rect fill="#764b2a" height="1" id="svg_49" stroke="#000000" stroke-width="0" width="1" x="8" y="7"/>
  <rect fill="#764b2a" height="1" id="svg_50" stroke="#000000" stroke-width="0" width="2" x="9" y="8"/>
  <rect fill="#764b2a" height="1" id="svg_51" stroke="#000000" stroke-width="0" width="2" x="10" y="7"/>
  <rect fill="#371907" height="1" id="svg_52" stroke="#000000" stroke-width="0" width="1" x="8" y="5"/>
  <rect fill="#945b39" height="1" id="svg_53" stroke="#000000" stroke-width="0" transform="matrix(1 0 0 1 0 0)" width="2" x="8" y="6"/>
  <rect fill="#764b2a" height="1" id="svg_54" stroke="#000000" stroke-width="0" width="1" x="10" y="4"/>
  <rect fill="#764b2a" height="1" id="svg_55" stroke="#000000" stroke-width="0" width="1" x="11" y="3"/>
  <rect fill="#371907" height="1" id="svg_56" stroke="#000000" stroke-width="0" width="1" x="11" y="4"/>
  <rect fill="#764b2a" height="1" id="svg_59" stroke="#000000" stroke-width="0" transform="matrix(1 0 0 1 0 0)" width="1" x="13" y="4"/>
  <rect fill="#764b2a" height="1" id="svg_58" stroke="#000000" stroke-width="0" width="1" x="14" y="3"/>
  <rect fill="#371907" height="1" id="svg_57" stroke="#000000" stroke-width="0" width="1" x="14" y="4"/>
  <rect fill="#945b39" height="1" id="svg_60" stroke="#000000" stroke-width="0" width="1" x="13" y="3"/>
  <rect fill="#371907" height="1" id="svg_61" stroke="#000000" stroke-width="0" width="2" x="13" y="2"/>
  <rect fill="#371907" height="1" id="svg_62" stroke="#000000" stroke-width="0" transform="matrix(1 0 0 1 0 0)" width="2" x="14" y="1"/>
  <rect fill="#945b39" height="1" id="svg_63" stroke="#000000" stroke-width="0" width="1" x="15" y="0"/>
  <rect fill="#945b39" height="1" id="svg_64" stroke="#000000" stroke-width="0" width="1" x="15" y="2"/>
  <rect fill="#945b39" height="1" id="svg_65" stroke="#000000" stroke-width="0" width="1" x="15" y="5"/>
  <rect fill="#764b2a" height="1" id="svg_66" stroke="#000000" stroke-width="0" transform="matrix(1 0 0 1 0 0)" width="1" x="13" y="1"/>
  <rect fill="#371907" height="1" id="svg_67" stroke="#000000" stroke-width="0" width="1" x="12" y="0"/>
  <rect fill="#945b39" height="1" id="svg_68" stroke="#000000" stroke-width="0" width="2" x="11" y="6"/>
  <rect fill="#945b39" height="1" id="svg_69" stroke="#000000" stroke-width="0" width="1" x="12" y="5"/>
  <rect fill="#764b2a" height="1" id="svg_71" stroke="#000000" stroke-width="0" width="2" x="7" y="11"/>
  <rect fill="#945b39" height="1" id="svg_70" stroke="#000000" stroke-width="0" transform="matrix(1 0 0 1 0 0)" width="2" x="7" y="10"/>
  <rect fill="#484e52" height="1" id="svg_72" stroke="#000000" stroke-width="0" transform="matrix(1 0 0 1 0 0)" width="1" x="6" y="11"/>
  <rect fill="#764b2a" height="2" id="svg_73" stroke="#000000" stroke-width="0" width="1" x="5" y="10"/>
  <rect fill="#945b39" height="1" id="svg_74" stroke="#000000" stroke-width="0" width="1" x="4" y="10"/>
  <rect fill="#945b39" height="1" id="svg_75" stroke="#000000" stroke-width="0" width="1" x="4" y="12"/>
  <rect fill="#945b39" height="1" id="svg_76" stroke="#000000" stroke-width="0" width="1" x="3" y="11"/>
  <rect fill="#945b39" height="1" id="svg_77" stroke="#000000" stroke-width="0" width="2" x="1" y="10"/>
  <rect fill="#764b2a" height="1" id="svg_79" stroke="#000000" stroke-width="0" transform="matrix(1 0 0 1 0 0)" width="2" x="2" y="12"/>
  <rect fill="#764b2a" height="1" id="svg_78" stroke="#000000" stroke-width="0" width="2" x="1" y="11"/>
  <rect fill="#764b2a" height="1" id="svg_80" stroke="#000000" stroke-width="0" width="2" x="6" y="13"/>
  <rect fill="#371907" height="1" id="svg_81" stroke="#000000" stroke-width="0" transform="matrix(1 0 0 1 0 0)" width="1" x="9" y="13"/>
  <rect fill="#945b39" height="1" id="svg_82" stroke="#000000" stroke-width="0" width="1" x="10" y="13"/>
  <rect fill="#371907" height="2" id="svg_83" stroke="#000000" stroke-width="0" transform="matrix(1 0 0 1 0 0)" width="1" x="11" y="13"/>
  <rect fill="#666565" height="1" id="svg_84" stroke="#000000" stroke-width="0" width="1" x="12" y="10"/>
  <rect fill="#666565" height="1" id="svg_85" stroke="#000000" stroke-width="0" transform="matrix(1 0 0 1 0 0)" width="1" x="14" y="10"/>
  <rect fill="#371907" height="1" id="svg_86" stroke="#000000" stroke-width="0" width="1" x="13" y="11"/>
  <rect fill="#371907" height="1" id="svg_87" stroke="#000000" stroke-width="0" transform="rotate(1 16 11.5)" width="1" x="15" y="11"/>
  <rect fill="#371907" height="1" id="svg_88" stroke="#000000" stroke-width="0" transform="matrix(1 0 0 1 0 0)" width="1" x="10" y="11"/>
  <rect fill="#764b2a" height="1" id="svg_89" stroke="#000000" stroke-width="0" width="2" x="9" y="8"/>
  <rect fill="#764b2a" height="1" id="svg_90" stroke="#000000" stroke-width="0" transform="matrix(1 0 0 1 0 0)" width="2" x="10" y="10"/>
  <rect fill="#764b2a" height="1" id="svg_91" stroke="#000000" stroke-width="0" width="1" x="11" y="11"/>
  <rect fill="#764b2a" height="1" id="svg_93" stroke="#000000" stroke-width="0" transform="matrix(1 0 0 1 0 0)" width="2" x="14" y="7"/>
  <rect fill="#764b2a" height="1" id="svg_92" stroke="#000000" stroke-width="0" transform="matrix(1 0 0 1 0 0)" width="1" x="14" y="6"/>
  <rect fill="#371907" height="1" id="svg_95" stroke="#000000" stroke-width="0" width="1" x="14" y="8"/>
  <rect fill="#945b39" height="1" id="svg_94" stroke="#000000" stroke-width="0" width="1" x="15" y="9"/>
  <rect fill="#945b39" height="1" id="svg_96" stroke="#000000" stroke-width="0" transform="matrix(1 0 0 1 0 0)" width="4" x="12" y="12"/>
  <rect fill="#945b39" height="1" id="svg_97" stroke="#000000" stroke-width="0" transform="matrix(1 0 0 1 0 0)" width="1" x="13" y="13"/>
  <rect fill="#764b2a" height="2" id="svg_98" stroke="#000000" stroke-width="0" width="2" x="14" y="13"/>
  <rect fill="#371907" height="1" id="svg_99" stroke="#000000" stroke-width="0" transform="matrix(1 0 0 1 0 0)" width="1" x="15" y="15"/>
  <rect fill="#764b2a" height="1" id="svg_100" stroke="#000000" stroke-width="0" width="2" x="12" y="15"/>
  <rect fill="#764b2a" height="1" id="svg_101" stroke="#000000" stroke-width="0" width="3" x="7" y="15"/>
  <rect fill="#666565" height="1" id="svg_102" stroke="#000000" stroke-width="0" transform="matrix(1 0 0 1 0 0)" width="1" x="6" y="15"/>
  <rect fill="#371907" height="1" id="svg_104" stroke="#000000" stroke-width="0" transform="matrix(1 0 0 1 0 0)" width="1" x="5" y="14"/>
  <rect fill="#371907" height="1" id="svg_103" stroke="#000000" stroke-width="0" transform="matrix(1 0 0 1 0 0) rotate(1 7.93788 14.5163)" width="1" x="7" y="14"/>
  <rect fill="#764b2a" height="1" id="svg_106" stroke="#000000" stroke-width="0" transform="matrix(1 0 0 1 0 0)" width="1" x="1" y="13"/>
  <rect fill="#764b2a" height="1" id="svg_105" stroke="#000000" stroke-width="0" transform="matrix(1 0 0 1 0 0)" width="1" x="0" y="12"/>
  <rect fill="#764b2a" height="2" id="svg_107" stroke="#000000" stroke-width="0" width="1" x="0" y="14"/>
  <rect fill="#371907" height="1" id="svg_108" stroke="#000000" stroke-width="0" transform="matrix(1 0 0 1 0 0)" width="1" x="2" y="14"/>
  <rect fill="#945b39" height="1" id="svg_109" stroke="#000000" stroke-width="0" width="1" x="3" y="14"/>
  <rect fill="#945b39" height="1" id="svg_110" stroke="#000000" stroke-width="0" transform="matrix(1 0 0 1 0 0)" width="1" x="2" y="15"/>
  <rect fill="#764b2a" height="1" id="svg_111" stroke="#000000" stroke-width="0" width="2" x="3" y="15"/>
 </g>
</svg>